<svg xmlns="http://www.w3.org/2000/svg" width="720" height="348.938" viewBox="0 0 720 348.938">
  <metadata><?xpacket begin="﻿" id="W5M0MpCehiHzreSzNTczkc9d"?>
<x:xmpmeta xmlns:x="adobe:ns:meta/" x:xmptk="Adobe XMP Core 5.6-c138 79.159824, 2016/09/14-01:09:01        ">
   <rdf:RDF xmlns:rdf="http://www.w3.org/1999/02/22-rdf-syntax-ns#">
      <rdf:Description rdf:about=""/>
   </rdf:RDF>
</x:xmpmeta>
                                                                                                    
                                                                                                    
                                                                                                    
                                                                                                    
                                                                                                    
                                                                                                    
                                                                                                    
                                                                                                    
                                                                                                    
                                                                                                    
                                                                                                    
                                                                                                    
                                                                                                    
                                                                                                    
                                                                                                    
                                                                                                    
                                                                                                    
                                                                                                    
                                                                                                    
                                                                                                    
                           
<?xpacket end="w"?></metadata>
<defs>
    <style>
      .cls-1 {
        fill: #0d0777;
        fill-rule: evenodd;
      }
    </style>
  </defs>
  <path id="Ellipse_1_copy_4" data-name="Ellipse 1 copy 4" class="cls-1" d="M500,326c198.822,0,360,78.113,360,174.469s-161.178,174.47-360,174.47-360-78.113-360-174.47S301.178,326,500,326Zm0,58c165.685,0,300,65.094,300,145.391S665.685,674.782,500,674.782,200,609.688,200,529.391,334.315,384,500,384Zm0,48c138.071,0,250,54.245,250,121.159S638.071,674.318,500,674.318,250,620.074,250,553.159,361.929,432,500,432Zm0,49c110.457,0,200,43.4,200,96.927s-89.543,96.928-200,96.928-200-43.4-200-96.928S389.543,481,500,481Zm0,48c82.843,0,150,32.547,150,72.7s-67.157,72.695-150,72.695S350,641.844,350,601.7,417.157,529,500,529Z" transform="translate(-140 -326)"/>
</svg>
